<?xml version="1.0" standalone="no"?>
<!DOCTYPE svg PUBLIC "-//W3C//DTD SVG 20010904//EN"
 "http://www.w3.org/TR/2001/REC-SVG-20010904/DTD/svg10.dtd">
<svg version="1.0" xmlns="http://www.w3.org/2000/svg"
 width="700.000000pt" height="700.000000pt" viewBox="0 0 700.000000 700.000000"
 preserveAspectRatio="xMidYMid meet">
<metadata>
Created by potrace 1.14, written by Peter Selinger 2001-2017
</metadata>
<g transform="translate(0.000000,700.000000) scale(0.100000,-0.100000)"
fill="#000000" stroke="none">
<path d="M3200 6990 c-145 -15 -196 -22 -330 -46 -1402 -256 -2511 -1340
-2799 -2736 -53 -256 -65 -386 -66 -688 0 -278 4 -341 31 -530 127 -872 583
-1666 1274 -2222 531 -427 1203 -697 1880 -756 168 -14 611 -7 732 13 13 2 46
7 73 10 72 10 86 12 120 19 17 3 44 8 60 11 342 65 741 212 1039 384 49 28 91
51 93 51 10 0 268 180 353 247 153 119 321 277 450 422 36 41 70 79 76 85 65
68 263 353 352 508 46 79 172 331 172 342 0 3 11 29 24 58 45 100 121 328 157
468 25 103 24 94 54 260 44 244 50 329 49 640 0 290 -12 414 -64 670 -198 983
-824 1846 -1700 2345 -314 179 -721 331 -1040 388 -49 9 -105 20 -125 24 -11
2 -54 8 -95 13 -41 5 -93 12 -115 15 -64 10 -573 13 -655 5z m580 -704 c14 -3
77 -12 140 -21 454 -64 884 -246 1275 -539 158 -118 413 -373 531 -531 228
-305 383 -621 478 -975 30 -113 62 -280 72 -370 3 -36 8 -68 11 -72 8 -15 11
-409 3 -503 -27 -299 -75 -512 -185 -805 -65 -173 -265 -529 -369 -655 l-25
-30 -99 98 -99 99 19 71 c14 52 20 105 20 192 1 148 -22 253 -75 350 -6 11
-15 29 -21 40 -84 160 -294 315 -537 396 -85 28 -285 84 -339 95 -14 3 -38 9
-55 14 -16 4 -73 18 -126 30 l-97 23 -301 301 c-167 168 -301 310 -301 320 0
9 12 34 27 54 122 165 285 229 594 236 321 7 533 -75 656 -255 51 -74 77 -145
101 -274 8 -38 10 -40 42 -39 40 1 242 15 280 19 14 2 34 3 45 4 26 1 26 30
-1 175 -17 91 -74 224 -136 315 -45 66 -154 172 -218 213 -158 100 -362 167
-565 186 -91 8 -303 8 -385 -1 -68 -8 -221 -41 -255 -56 -11 -5 -52 -21 -91
-35 -126 -47 -251 -134 -329 -228 -22 -26 -42 -48 -45 -48 -3 0 -372 367 -820
816 l-815 815 25 20 c60 47 254 172 355 228 319 177 735 302 1091 327 49 4 91
8 93 10 5 5 401 -4 431 -10z m-2085 -1476 c220 -220 393 -400 385 -401 -8 -1
-27 -1 -42 -1 -16 -1 -28 -3 -29 -7 0 -3 -2 -517 -4 -1141 -1 -624 -5 -1146
-9 -1160 -3 -14 -8 -40 -10 -58 -19 -146 -125 -270 -269 -314 -151 -46 -347
-18 -426 61 -53 53 -113 144 -133 200 -19 55 -36 147 -43 241 -3 35 -7 65 -9
67 -2 3 -32 0 -66 -5 l-62 -9 -25 55 c-121 265 -198 551 -239 887 -20 168 -7
565 25 735 6 30 13 71 16 90 28 175 148 521 248 715 77 150 267 445 286 445 3
0 186 -180 406 -400z m1887 -1887 c642 -642 1164 -1171 1160 -1175 -28 -28
-361 -52 -472 -34 -25 4 -58 10 -75 12 -222 34 -450 168 -544 321 -37 61 -87
190 -96 254 -4 24 -9 51 -10 59 -2 8 -4 20 -4 27 -1 8 -15 11 -43 8 -24 -2
-70 -6 -103 -9 -166 -13 -221 -19 -226 -22 -9 -5 0 -100 18 -189 59 -302 253
-554 527 -684 82 -39 246 -94 316 -105 19 -3 46 -8 59 -11 72 -14 188 -20 366
-19 181 0 211 3 317 28 65 15 150 40 190 57 l72 30 90 -90 90 -90 -20 -20
c-84 -78 -408 -267 -594 -346 -158 -68 -423 -151 -544 -170 -17 -3 -53 -10
-81 -15 -27 -5 -77 -12 -110 -16 -33 -3 -69 -8 -80 -11 -38 -9 -421 -11 -510
-3 -437 40 -839 168 -1203 384 -163 97 -391 265 -360 266 76 3 216 47 304 96
239 132 354 347 380 711 4 54 8 509 8 1011 0 501 3 912 6 912 2 0 530 -525
1172 -1167z m1468 -421 c51 -50 108 -137 98 -148 -2 -2 -62 55 -133 127 -129
130 -130 131 -77 104 30 -14 80 -52 112 -83z"/>
</g>
</svg>
